Coordinates
version=1
nRows=16
nColumns=40
inDegrees=yes

Units are S.I. units (second, meters, Newtons, ...)
Angles are in degrees.

endheader
time	pelvis_tilt	pelvis_list	pelvis_rotation	pelvis_tx	pelvis_ty	pelvis_tz	hip_flexion_r	hip_adduction_r	hip_rotation_r	knee_angle_r	knee_angle_r_beta	ankle_angle_r	subtalar_angle_r	mtp_angle_r	hip_flexion_l	hip_adduction_l	hip_rotation_l	knee_angle_l	knee_angle_l_beta	ankle_angle_l	subtalar_angle_l	mtp_angle_l	lumbar_extension	lumbar_bending	lumbar_rotation	arm_flex_r	arm_add_r	arm_rot_r	elbow_flex_r	pro_sup_r	wrist_flex_r	wrist_dev_r	arm_flex_l	arm_add_l	arm_rot_l	elbow_flex_l	pro_sup_l	wrist_flex_l	wrist_dev_l
      0.00000000	     -1.96028330	     -2.53651390	      1.37633603	     -1.38538303	      0.90122846	      1.41671884	     23.01268983	      0.15391122	    -13.28433903	    -25.91836913	     -0.45236088	      1.07286928	     -7.36787981	      0.51630288	     -0.03153097	      0.05334238	      9.47542633	    -11.72614006	     -0.20465975	     10.81103666	     -4.16704079	     -4.03655154	     -8.14551800	      4.09785040	     -0.91245340	      6.59262665	    -12.33297415	     20.93000415	     16.42525364	     89.95437384	      0.00000000	      0.00000000	     13.12752475	     12.08631647	    -13.27464318	     20.26448820	     89.95437384	      0.00000000	      0.00000000
      0.01000000	     -2.01846908	     -2.67438243	      1.11393230	     -1.38252751	      0.90071736	      1.41711392	     23.27178071	      0.48033068	    -13.24181066	    -24.77579097	     -0.43241913	      0.15192068	     -6.59284682	      0.66089637	     -0.02207515	      0.25803373	      9.75436707	    -12.06764997	     -0.21062022	     11.12162650	     -3.87478486	     -4.16245136	     -8.15550160	      4.35618800	     -0.80572002	      6.60019589	    -12.33822425	     20.91757148	     16.20784327	     89.95437384	      0.00000000	      0.00000000	     13.43857712	     11.88910543	    -13.14140919	     20.63138880	     89.95437384	      0.00000000	      0.00000000
      0.02000000	     -2.16900168	     -2.55769692	      0.80052290	     -1.37957121	      0.89996465	      1.41738570	     23.76555785	      0.45070671	    -13.46187347	    -24.02862549	     -0.41937863	     -0.14256238	     -6.28049281	      0.71089441	      0.00442716	      0.10156159	      9.78211091	    -12.25214685	     -0.21384030	     11.27252916	     -3.78843494	     -4.18412971	     -8.05836826	      4.34932531	     -0.65939254	      6.53029664	    -12.35333804	     20.92558578	     16.09175233	     89.95437384	      0.00000000	      0.00000000	     13.70556465	     11.69880875	    -13.12046565	     21.04873214	     89.95437384	      0.00000000	      0.00000000
      0.03000000	     -2.24296043	     -2.78271680	      0.56709515	     -1.37692067	      0.89951277	      1.41779398	     23.87696682	      0.89187307	    -13.31251426	    -22.64342009	     -0.39520223	     -1.66821467	     -5.20348220	      0.84441606	      0.05468021	      0.33996726	      9.54729388	    -12.66712193	     -0.22108298	     11.83359668	     -3.57509273	     -4.34167460	     -8.11218869	      4.72247453	     -0.69479610	      6.69645284	    -12.33846221	     20.93626218	     15.88974975	     89.95437384	      0.00000000	      0.00000000	     13.79351032	     11.60530517	    -13.02766745	     21.81773736	     89.95437384	      0.00000000	      0.00000000
      0.04000000	     -2.39336689	     -2.71078576	      0.27409677	     -1.37395655	      0.89881991	      1.41822671	     24.39194750	      0.89221058	    -13.63156188	    -22.14276708	     -0.38646419	     -1.75341244	     -5.03484492	      0.86193496	      0.05879635	      0.24747422	      9.55515652	    -12.82112599	     -0.22377086	     11.92239291	     -3.46719570	     -4.33581968	     -8.06694081	      4.74213940	     -0.58040945	      6.66136136	    -12.36606083	     20.92248695	     15.88393197	     89.95437384	      0.00000000	      0.00000000	     14.05015180	     11.42215821	    -13.00530525	     22.23997062	     89.95437384	      0.00000000	      0.00000000
      0.05000000	     -2.20000971	     -3.16925443	      0.22741282	     -1.37021700	      0.89873303	      1.41847695	     23.93087916	      1.43506454	    -14.45744587	    -20.55916454	     -0.35882511	     -2.94087087	     -3.78426022	      0.85621020	     -0.33104275	      0.75653348	      9.37869062	    -13.07755659	     -0.22824642	     12.63184904	     -2.87129494	     -4.55953767	     -8.26793024	      5.41382582	     -0.67977106	      6.72783506	    -12.38657272	     20.95305169	     15.70760142	     89.95437384	      0.00000000	      0.00000000	     14.06821698	     11.20896101	    -12.96248682	     22.85087041	     89.95437384	      0.00000000	      0.00000000
      0.06000000	     -2.42209553	     -3.04284678	     -0.05549407	     -1.36713166	      0.89797667	      1.41877756	     24.44543143	      1.39472699	    -14.70320823	    -20.11933953	     -0.35114872	     -2.95950682	     -3.58328111	      0.84952453	     -0.27854489	      0.59237349	      9.42091289	    -13.17323107	     -0.22991626	     12.67985100	     -2.81638736	     -4.54773567	     -8.18094954	      5.42610242	     -0.66799762	      6.77202048	    -12.42468677	     20.93017967	     15.74530988	     89.95437384	      0.00000000	      0.00000000	     14.19218494	     11.03996432	    -12.91440298	     23.34240331	     89.95437384	      0.00000000	      0.00000000
      0.07000000	     -2.36551048	     -3.40225122	     -0.11324029	     -1.36316462	      0.89764848	      1.41903596	     24.13823947	      1.74378949	    -15.70727386	    -18.87143793	     -0.32936873	     -3.81100945	     -1.16689504	      0.39344850	     -0.55541278	      1.01528475	      9.40204934	    -13.37787518	     -0.23348797	     13.28059591	     -2.76417637	     -4.93065383	     -8.16520818	      5.97530185	     -0.68830745	      6.75891147	    -12.42538064	     20.83544855	     15.55153008	     89.95437384	      0.00000000	      0.00000000	     14.18379866	     10.75663908	    -12.79937327	     23.90693602	     89.95437384	      0.00000000	      0.00000000
      0.08000000	     -2.56446843	     -3.53450659	     -0.33290908	     -1.35925531	      0.89697821	      1.41945829	     24.28272018	      1.97223823	    -16.15198417	    -18.08834793	     -0.31570123	     -4.18544919	      0.11703208	      0.06360836	     -0.61597950	      1.18162819	      9.60880177	    -13.44813821	     -0.23471429	     13.53753244	     -2.69593101	     -5.09534966	     -8.01359530	      6.28875973	     -0.94606364	      6.93765264	    -12.39692630	     20.76846682	     15.36538320	     89.95437384	      0.00000000	      0.00000000	     13.90314135	     10.66166931	    -12.51344920	     24.67687232	     89.95437384	      0.00000000	      0.00000000
      0.09000000	     -2.82838858	     -3.48527267	     -0.58374321	     -1.35554037	      0.89607441	      1.41989827	     24.63426434	      2.04278707	    -16.35948267	    -17.71118054	     -0.30911841	     -4.10365662	      0.33897385	      0.01341724	     -0.61479589	      1.12152145	      9.63884190	    -13.46497405	     -0.23500813	     13.61386675	     -2.64688079	     -5.08867083	     -7.75945868	      6.39412980	     -0.82687086	      6.90427026	    -12.38517886	     20.75375869	     15.37207927	     89.95437384	      0.00000000	      0.00000000	     13.96987821	     10.38422382	    -12.54479006	     25.01422673	     89.95437384	      0.00000000	      0.00000000
      0.10000000	     -2.75254641	     -3.76620964	     -0.62290969	     -1.35118037	      0.89572296	      1.42018922	     24.33987417	      2.23584589	    -17.30673495	    -17.09276397	     -0.29832501	     -4.15626024	      3.45094475	     -1.39507450	     -1.00027491	      1.47502152	      9.76420038	    -13.51393298	     -0.23586263	     13.87114402	     -2.87146315	     -5.63207756	     -7.81062653	      6.88772312	     -0.97365736	      6.91367170	    -12.39379265	     20.40315903	     15.37173555	     89.95437384	      0.00000000	      0.00000000	     13.84296665	     10.17860648	    -12.54053879	     25.59003268	     89.95437384	      0.00000000	      0.00000000
      0.11000000	     -2.99722428	     -3.86023425	     -0.78768901	     -1.34707006	      0.89481835	      1.42066482	     24.56728319	      2.45742533	    -17.13976500	    -16.89953310	     -0.29495249	     -4.03380530	      3.70745887	     -1.52611093	     -1.05745548	      1.58690331	      9.75903218	    -13.51828752	     -0.23593863	     14.16488161	     -2.81013575	     -5.66773175	     -7.53517885	      7.15675754	     -0.98547366	      6.90639252	    -12.43502944	     20.32003384	     15.38359431	     89.95437384	      0.00000000	      0.00000000	     13.77211721	      9.92289594	    -12.57915123	     25.97978715	     89.95437384	      0.00000000	      0.00000000
      0.12000000	     -3.12836852	     -3.97235636	     -0.94574235	     -1.34270062	      0.89399376	      1.42118555	     24.64322412	      2.67950307	    -16.99436490	    -16.87536395	     -0.29453066	     -3.98622070	      3.94016507	     -1.65161777	     -1.26596192	      1.71558185	      9.71799271	    -13.52367462	     -0.23603265	     14.47613284	     -2.75481439	     -5.70431920	     -7.37446514	      7.44814454	     -1.03039364	      6.89438901	    -12.43303573	     20.20581569	     15.45823636	     89.95437384	      0.00000000	      0.00000000	     13.65436177	      9.71310501	    -12.60768783	     26.40629065	     89.95437384	      0.00000000	      0.00000000
      0.13000000	     -3.07260642	     -4.15470217	     -1.01478388	     -1.33784808	      0.89343702	      1.42170249	     24.42435176	      2.92024908	    -17.04147846	    -16.93801400	     -0.29562411	     -4.06630867	      4.17319217	     -1.88660799	     -1.59379648	      1.97313680	      9.94259308	    -13.75422236	     -0.24005647	     14.71018226	     -2.35106024	     -5.71786450	     -7.40117755	      7.81529104	     -1.10069672	      6.86562494	    -12.43454095	     19.98373627	     15.53047112	     89.95437384	      0.00000000	      0.00000000	     13.49226347	      9.53272699	    -12.77384529	     26.93070957	     89.95437384	      0.00000000	      0.00000000
      0.14000000	     -3.26292422	     -4.20180541	     -1.03137033	     -1.33295763	      0.89254122	      1.42207314	     24.49956338	      2.98726311	    -16.90664803	    -17.24315379	     -0.30094981	     -4.14683037	      4.10279205	     -1.92052823	     -1.82802872	      2.01217099	      9.71399128	    -13.58830196	     -0.23716061	     15.03050049	     -2.53104086	     -5.76443622	     -7.09656690	      8.04491728	     -1.26816136	      6.79008605	    -12.40637123	     19.90981936	     15.56066771	     89.95437384	      0.00000000	      0.00000000	     13.38559845	      9.26435508	    -12.87020343	     27.09575268	     89.95437384	      0.00000000	      0.00000000
      0.15000000	     -3.34546552	     -4.25381099	     -0.94504658	     -1.32796919	      0.89161186	      1.42236878	     24.42825101	      3.01047097	    -16.70026377	    -17.68676135	     -0.30869222	     -4.15041642	      3.93828907	     -1.93650305	     -2.11752483	      2.09245233	      9.57214511	    -13.55617378	     -0.23659987	     15.28919631	     -2.58342924	     -5.78041953	     -6.89057301	      8.28685215	     -1.46092085	      6.71052515	    -12.42310424	     19.76963428	     15.70906761	     89.95437384	      0.00000000	      0.00000000	     13.22656890	      9.04239547	    -12.96788470	     27.41909948	     89.95437384	      0.00000000	      0.00000000
